#!OML:ASF H:\Terrain\Walking\May29\JustinRory\Justin.ASF
:FULLY-SPECIFIED
:DEGREES
146
root 8.1057 17.3986 11.6968 -200.014 -79.4358 204.711
lowerback 15.6138 -1.29966 -2.42757
upperback 2.89294 -2.14132 2.27006
thorax -5.49023 -1.06858 4.2202
lowerneck 3.3512 -19.7363 -16.4889
upperneck 2.38713 -28.723 22.8251
head 5.96024 -14.3538 7.02474
rclavicle 2.01766e-014 -1.35174e-014
rhumerus -13.6273 -41.2465 -16.4294
rradius 31.1358
rwrist -34.3718
rhand -18.656 3.30767
rfingers 7.12502
rthumb 7.63724 -26.5344
lclavicle 2.01766e-014 -1.35174e-014
lhumerus -26.0833 5.00221 56.3839
lradius 35.2482
lwrist 1.18908
lhand 0.31565 40.7619
lfingers 7.12502
lthumb 25.8927 69.0189
rfemur -15.3491 -6.56526 10.6138
rtibia 42.2386
rfoot -12.2635 -3.76686
rtoes -27.3683
lfemur -33.5363 18.0107 -16.3798
ltibia 61.9901
lfoot -15.3055 -13.9
ltoes -18.2466
147
root 8.1241 17.3665 11.7312 -202.708 -80.0627 207.426
lowerback 15.8359 -1.3461 -1.94287
upperback 3.04892 -2.14203 2.13347
thorax -5.46856 -1.08321 3.80369
lowerneck 3.35839 -19.825 -16.6396
upperneck 2.30551 -28.9054 23.2771
head 6.07094 -14.446 7.12988
rclavicle 2.89232e-014 5.1684e-015
rhumerus -14.9678 -40.2365 -15.3476
rradius 30.8113
rwrist -35.2051
rhand -19.205 3.35596
rfingers 7.12502
rthumb 7.10728 -26.5047
lclavicle 2.89232e-014 5.1684e-015
lhumerus -25.507 5.66687 54.5962
lradius 34.2664
lwrist 0.73683
lhand -0.460689 40.994
lfingers 7.12502
lthumb 25.149 69.3574
rfemur -14.5485 -5.29443 10.8647
rtibia 40.7773
rfoot -13.3794 -5.04725
rtoes -22.362
lfemur -34.1175 17.6084 -15.562
ltibia 62.4446
lfoot -17.087 -10.6797
ltoes -19.1754
148
root 8.13007 17.36 11.7821 -207.298 -80.7444 212.109
lowerback 15.9466 -1.552 -1.06369
upperback 3.13361 -2.27953 2.02076
thorax -5.46717 -1.16731 3.21365
lowerneck 3.56768 -19.8818 -16.6887
upperneck 2.12182 -29.0319 23.6464
head 6.07799 -14.5303 7.24042
rclavicle 2.29596e-014 3.57812e-015
rhumerus -16.3994 -38.6526 -14.3799
rradius 30.6961
rwrist -36.6078
rhand -19.6632 3.27697
rfingers 7.12502
rthumb 6.66492 -26.5981
lclavicle 2.29596e-014 3.57812e-015
lhumerus -25.0825 6.62926 52.7309
lradius 33.2513
lwrist -0.240489
lhand -0.386689 41.2662
lfingers 7.12502
lthumb 25.2199 69.6197
rfemur -13.6613 -4.34352 11.214
rtibia 39.1223
rfoot -13.8382 -6.13936
rtoes -17.4846
lfemur -34.7283 17.0408 -14.584
ltibia 62.8388
lfoot -18.3809 -7.15601
ltoes -18.1164
149
root 8.13616 17.3425 11.8236 -209.316 -81.4173 214.183
lowerback 16.0551 -1.65861 -1.07586
upperback 3.178 -2.42336 2.03661
thorax -5.46875 -1.23865 3.26968
lowerneck 3.69297 -19.9446 -16.6552
upperneck 1.98049 -29.0512 23.444
head 5.97711 -14.5513 7.19437
rclavicle -2.20651e-014 -2.38542e-015
rhumerus -17.1511 -37.7175 -13.549
rradius 30.1293
rwrist -36.8125
rhand -20.4867 3.335
rfingers 7.12502
rthumb 5.86992 -26.5637
lclavicle -2.20651e-014 -2.38542e-015
lhumerus -25.0336 7.90316 51.0784
lradius 32.4292
lwrist -1.23445
lhand -0.481244 41.3417
lfingers 7.12502
lthumb 25.1293 69.7078
rfemur -12.7638 -4.58579 11.2546
rtibia 38.1902
rfoot -14.026 -7.39726
rtoes -22.9152
lfemur -35.1391 16.6104 -13.9997
ltibia 62.9378
lfoot -18.8484 -4.13528
ltoes -16.6926
150
root 8.1592 17.2962 11.8783 -208.155 -81.6084 213.258
lowerback 16.2024 -1.52406 -1.24757
upperback 3.11911 -2.27317 2.0112
thorax -5.61499 -1.15805 3.31845
lowerneck 3.79232 -20.0382 -16.7759
upperneck 1.94302 -29.1557 23.3344
head 5.96836 -14.6066 7.16511
rclavicle 4.48259e-014 -5.20816e-014
rhumerus -17.6623 -36.4755 -13.0044
rradius 30.0185
rwrist -38.8513
rhand -19.9465 3.63213
rfingers 7.12502
rthumb 6.39147 -26.2514
lclavicle 4.48259e-014 -5.20816e-014
lhumerus -24.9609 9.17648 49.6278
lradius 31.7516
lwrist -2.06079
lhand -0.878358 41.4961
lfingers 7.12502
lthumb 24.7488 69.915
rfemur -12.7576 -4.33886 10.8156
rtibia 37.4426
rfoot -14.7341 -7.68925
rtoes -22.4028
lfemur -35.788 16.4945 -13.6579
ltibia 62.9615
lfoot -19.1778 -1.13222
ltoes -14.8911
151
root 8.1811 17.2546 11.9308 -209.659 -81.6119 214.882
lowerback 16.4992 -1.40802 -0.855897
upperback 3.10969 -2.0601 1.93043
thorax -5.81643 -1.05798 2.97934
lowerneck 3.96918 -20.1092 -16.7093
upperneck 1.86744 -29.2822 23.4965
head 5.96039 -14.6834 7.20001
rclavicle -2.29596e-014 3.97569e-014
rhumerus -18.9627 -35.4531 -12.2256
rradius 29.8977
rwrist -39.507
rhand -20.5288 4.0371
rfingers 7.12502
rthumb 5.82924 -25.8627
lclavicle -2.29596e-014 3.97569e-014
lhumerus -24.7778 10.1515 48.0873
lradius 31.2942
lwrist -2.76075
lhand -1.10911 41.7971
lfingers 7.12502
lthumb 24.5276 70.2463
rfemur -12.6673 -4.29588 10.9114
rtibia 36.9459
rfoot -15.6948 -8.10676
rtoes -23.3541
lfemur -36.2311 16.18 -12.69
ltibia 62.9009
lfoot -19.3772 1.52407
ltoes -12.8569
152
root 8.19413 17.213 11.9886 -211.49 -81.7477 216.792
lowerback 16.6859 -1.43865 -0.594351
upperback 3.17654 -2.0572 1.99609
thorax -5.85303 -1.06328 2.90615
lowerneck 4.10601 -20.0327 -16.808
upperneck 1.60455 -29.1569 23.6769
head 5.87975 -14.6426 7.30984
rclavicle 1.05356e-014 7.15625e-015
rhumerus -19.8062 -34.3578 -11.8062
rradius 30.1558
rwrist -40.6039
rhand -20.7449 4.40786
rfingers 7.12502
rthumb 5.62068 -25.4976
lclavicle 1.05356e-014 7.15625e-015
lhumerus -25.0245 12.0723 46.4782
lradius 30.95
lwrist -4.17628
lhand -0.559516 41.8652
lfingers 7.12502
lthumb 25.0543 70.2418
rfemur -12.3752 -5.15087 11.0138
rtibia 36.4185
rfoot -16.0382 -8.46879
rtoes -26.9461
lfemur -36.5336 15.5903 -11.7228
ltibia 62.7372
lfoot -19.5009 3.96608
ltoes -9.79792
153
root 8.20198 17.1612 12.0509 -211.749 -82.0938 217.138
lowerback 16.68 -1.49944 -0.640163
upperback 3.36344 -2.15462 2.03334
thorax -5.64215 -1.11854 2.98666
lowerneck 4.03638 -20.0166 -17.1189
upperneck 1.42894 -29.128 23.9539
head 5.92734 -14.6294 7.4186
rclavicle 1.99779e-014 1.78906e-014
rhumerus -20.1847 -34.3277 -11.4983
rradius 29.998
rwrist -40.6591
rhand -20.9629 4.52356
rfingers 7.12502
rthumb 5.41016 -25.3874
lclavicle 1.99779e-014 1.78906e-014
lhumerus -25.309 13.9494 45.084
lradius 30.8394
lwrist -5.02735
lhand -0.752825 42.394
lfingers 7.12502
lthumb 24.8691 70.7963
rfemur -12.0656 -5.95369 10.6057
rtibia 35.7986
rfoot -16.6379 -8.16526
rtoes -25.673
lfemur -36.7873 15.0397 -11.143
ltibia 62.3871
lfoot -19.4938 6.20239
ltoes -8.75223
154
root 8.20893 17.1137 12.1075 -211.528 -82.1245 216.966
lowerback 16.7165 -1.4017 -0.599528
upperback 3.58265 -2.03668 1.971
thorax -5.43828 -1.07113 2.86798
lowerneck 4.00014 -20.0704 -17.266
upperneck 1.21984 -29.2096 24.331
head 5.97577 -14.6757 7.52094
rclavicle 1.65985e-014 -1.23246e-014
rhumerus -20.7664 -35.2112 -11.1163
rradius 29.6756
rwrist -40.37
rhand -20.5319 4.63745
rfingers 7.12502
rthumb 5.82632 -25.2624
lclavicle 1.65985e-014 -1.23246e-014
lhumerus -25.3849 14.78 43.8396
lradius 30.9984
lwrist -4.5327
lhand -2.25257 43.5047
lfingers 7.12502
lthumb 23.4311 72.0981
rfemur -11.8065 -6.36687 10.3661
rtibia 35.0899
rfoot -17.2428 -8.1051
rtoes -23.8195
lfemur -36.8709 14.9293 -10.3859
ltibia 61.8388
lfoot -19.1245 7.9447
ltoes -9.28943
155
root 8.21389 17.0694 12.1603 -211.036 -81.6982 216.535
lowerback 16.8487 -1.1698 -0.655262
upperback 3.70252 -1.7441 2.12102
thorax -5.39027 -0.933097 3.00077
lowerneck 4.04341 -20.0833 -17.516
upperneck 0.955239 -29.1995 24.5211
head 5.9575 -14.6828 7.6116
rclavicle -1.98785e-015 -1.59028e-015
rhumerus -21.0714 -36.6029 -10.6007
rradius 29.2556
rwrist -39.7887
rhand -19.6463 4.72195
rfingers 7.12502
rthumb 6.68123 -25.1526
lclavicle -1.98785e-015 -1.59028e-015
lhumerus -25.823 16.4383 42.6004
lradius 31.0275
lwrist -4.92552
lhand -3.33974 44.2223
lfingers 7.12502
lthumb 22.3879 72.945
rfemur -11.6626 -6.79276 10.5206
rtibia 34.3588
rfoot -17.7304 -8.52362
rtoes -24.2426
lfemur -36.7717 15.1471 -9.29737
ltibia 61.1353
lfoot -18.4412 8.8507
ltoes -6.63301
156
root 8.21799 17.0219 12.2238 -209.262 -81.5972 214.948
lowerback 16.8789 -0.958911 -0.987721
upperback 3.73943 -1.5184 2.29796
thorax -5.36581 -0.820492 3.33198
lowerneck 3.84254 -20.1771 -17.6452
upperneck 1.04043 -29.2561 24.2113
head 5.99089 -14.6854 7.49696
rclavicle -2.49475e-014 2.36554e-014
rhumerus -21.4607 -38.3059 -9.78769
rradius 28.8847
rwrist -38.9556
rhand -18.6716 4.76712
rfingers 7.12502
rthumb 7.62211 -25.0755
lclavicle -2.49475e-014 2.36554e-014
lhumerus -26.4917 17.9184 41.7089
lradius 31.2854
lwrist -5.24543
lhand -3.71393 44.6891
lfingers 7.12502
lthumb 22.0286 73.4546
rfemur -11.5932 -7.32446 10.2443
rtibia 33.7931
rfoot -18.4108 -8.71593
rtoes -25.4188
lfemur -36.7375 14.9284 -8.61756
ltibia 60.2606
lfoot -17.4555 9.15979
ltoes -2.79489
